<mxfile host="app.diagrams.net" modified="2021-02-22T07:36:43.298Z" agent="5.0 (Windows NT 10.0; Win64; x64) AppleWebKit/537.36 (KHTML, like Gecko) Chrome/88.0.4324.182 Safari/537.36" etag="qEHjH8-earuAyuAqkWLp" version="14.4.2" type="github">
  <diagram id="MCrErEPo9ilewAODCz-R" name="Page-1">
    <mxGraphModel dx="2029" dy="1721" grid="1" gridSize="10" guides="1" tooltips="1" connect="1" arrows="1" fold="1" page="1" pageScale="1" pageWidth="827" pageHeight="1169" math="0" shadow="0">
      <root>
        <mxCell id="0" />
        <mxCell id="1" parent="0" />
        <mxCell id="4mogOLO7gWN9tjYVBM8P-2" value="" style="endArrow=none;html=1;sketch=1;strokeWidth=2" parent="1" edge="1">
          <mxGeometry width="50" height="50" relative="1" as="geometry">
            <mxPoint as="sourcePoint" />
            <mxPoint x="800" as="targetPoint" />
          </mxGeometry>
        </mxCell>
        <mxCell id="4mogOLO7gWN9tjYVBM8P-3" value="" style="endArrow=none;html=1;sketch=1;strokeWidth=2" parent="1" edge="1">
          <mxGeometry width="50" height="50" relative="1" as="geometry">
            <mxPoint as="sourcePoint" />
            <mxPoint y="450" as="targetPoint" />
          </mxGeometry>
        </mxCell>
        <mxCell id="4mogOLO7gWN9tjYVBM8P-4" value="" style="endArrow=none;html=1;sketch=1;strokeWidth=2" parent="1" edge="1">
          <mxGeometry width="50" height="50" relative="1" as="geometry">
            <mxPoint y="450" as="sourcePoint" />
            <mxPoint x="800" y="450" as="targetPoint" />
          </mxGeometry>
        </mxCell>
        <mxCell id="4mogOLO7gWN9tjYVBM8P-5" value="" style="endArrow=none;html=1;sketch=1;strokeWidth=2" parent="1" edge="1">
          <mxGeometry width="50" height="50" relative="1" as="geometry">
            <mxPoint x="800" as="sourcePoint" />
            <mxPoint x="800" y="450" as="targetPoint" />
          </mxGeometry>
        </mxCell>
        <mxCell id="GuQGx1tjLfm4qj2VWrpc-30" value="" style="whiteSpace=wrap;html=1;strokeWidth=2;fillWeight=4;hachureGap=0;hachureAngle=45;fillColor=#F2F2F2;sketch=1;rotation=-180;" parent="1" vertex="1">
          <mxGeometry x="210" y="150" width="387" height="220" as="geometry" />
        </mxCell>
        <mxCell id="gzpXgcCL4kZ78T3dxOcv-15" value="" style="rounded=1;whiteSpace=wrap;html=1;strokeWidth=2;fillWeight=4;hachureGap=0;hachureAngle=45;sketch=1;rotation=-180;strokeColor=#901dc2;" parent="1" vertex="1">
          <mxGeometry x="536" y="383" width="60" height="30" as="geometry" />
        </mxCell>
        <mxCell id="c112zVkCSZm8BFJnB4_g-1" value="&lt;font style=&quot;font-size: 24px&quot;&gt;&lt;b&gt;Create &amp;amp; Deploy TeSC&lt;/b&gt;&lt;/font&gt;" style="text;html=1;strokeColor=none;fillColor=none;align=center;verticalAlign=middle;whiteSpace=wrap;rounded=0;" parent="1" vertex="1">
          <mxGeometry x="70" y="20" width="260" height="20" as="geometry" />
        </mxCell>
        <mxCell id="c112zVkCSZm8BFJnB4_g-8" value="&lt;font style=&quot;font-size: 14px&quot; color=&quot;#901dc2&quot;&gt;&lt;b&gt;Next&lt;/b&gt;&lt;/font&gt;" style="text;html=1;strokeColor=none;fillColor=none;align=center;verticalAlign=middle;whiteSpace=wrap;rounded=0;" parent="1" vertex="1">
          <mxGeometry x="534" y="387" width="65" height="20" as="geometry" />
        </mxCell>
        <mxCell id="c112zVkCSZm8BFJnB4_g-14" value="" style="endArrow=none;html=1;strokeWidth=2;sketch=1" parent="1" edge="1">
          <mxGeometry width="50" height="50" relative="1" as="geometry">
            <mxPoint x="360.25" y="99.5" as="sourcePoint" />
            <mxPoint x="446.75" y="99.5" as="targetPoint" />
          </mxGeometry>
        </mxCell>
        <mxCell id="c112zVkCSZm8BFJnB4_g-17" value="" style="endArrow=none;html=1;strokeWidth=2;sketch=1" parent="1" edge="1">
          <mxGeometry width="50" height="50" relative="1" as="geometry">
            <mxPoint x="233.5" y="99.5" as="sourcePoint" />
            <mxPoint x="320" y="99.5" as="targetPoint" />
          </mxGeometry>
        </mxCell>
        <mxCell id="c112zVkCSZm8BFJnB4_g-22" value="" style="endArrow=none;html=1;strokeWidth=2;sketch=1" parent="1" edge="1">
          <mxGeometry width="50" height="50" relative="1" as="geometry">
            <mxPoint x="113.5" y="99.5" as="sourcePoint" />
            <mxPoint x="200" y="99.5" as="targetPoint" />
          </mxGeometry>
        </mxCell>
        <mxCell id="c112zVkCSZm8BFJnB4_g-24" value="" style="endArrow=none;html=1;strokeWidth=2;sketch=1" parent="1" edge="1">
          <mxGeometry width="50" height="50" relative="1" as="geometry">
            <mxPoint x="483" y="99.5" as="sourcePoint" />
            <mxPoint x="569.5" y="99.5" as="targetPoint" />
          </mxGeometry>
        </mxCell>
        <mxCell id="c112zVkCSZm8BFJnB4_g-26" value="" style="endArrow=none;html=1;strokeWidth=2;sketch=1" parent="1" edge="1">
          <mxGeometry width="50" height="50" relative="1" as="geometry">
            <mxPoint x="595" y="99.5" as="sourcePoint" />
            <mxPoint x="681.5" y="99.5" as="targetPoint" />
          </mxGeometry>
        </mxCell>
        <mxCell id="gzpXgcCL4kZ78T3dxOcv-7" value="" style="verticalLabelPosition=bottom;verticalAlign=top;html=1;shape=mxgraph.flowchart.on-page_reference;sketch=1;strokeWidth=2;strokeColor=#808080;hachureGap=1;fillColor=#808080" parent="1" vertex="1">
          <mxGeometry x="443" y="80" width="40" height="40" as="geometry" />
        </mxCell>
        <mxCell id="c112zVkCSZm8BFJnB4_g-15" value="" style="verticalLabelPosition=bottom;verticalAlign=top;html=1;shape=mxgraph.flowchart.on-page_reference;sketch=1;strokeWidth=2;strokeColor=#000099;hachureGap=1;fillColor=#000099" parent="1" vertex="1">
          <mxGeometry x="320" y="80" width="40" height="40" as="geometry" />
        </mxCell>
        <mxCell id="c112zVkCSZm8BFJnB4_g-18" value="" style="verticalLabelPosition=bottom;verticalAlign=top;html=1;shape=mxgraph.flowchart.on-page_reference;sketch=1;strokeWidth=2;strokeColor=#000099;hachureGap=1;fillColor=#000099" parent="1" vertex="1">
          <mxGeometry x="200" y="80" width="40" height="40" as="geometry" />
        </mxCell>
        <mxCell id="c112zVkCSZm8BFJnB4_g-23" value="" style="verticalLabelPosition=bottom;verticalAlign=top;html=1;shape=mxgraph.flowchart.on-page_reference;sketch=1;strokeWidth=2;strokeColor=#000099;hachureGap=1;fillColor=#000099" parent="1" vertex="1">
          <mxGeometry x="70" y="80" width="40" height="40" as="geometry" />
        </mxCell>
        <mxCell id="c112zVkCSZm8BFJnB4_g-25" value="" style="verticalLabelPosition=bottom;verticalAlign=top;html=1;shape=mxgraph.flowchart.on-page_reference;sketch=1;strokeWidth=2;strokeColor=#808080;hachureGap=1;fillColor=#808080" parent="1" vertex="1">
          <mxGeometry x="557" y="80" width="40" height="40" as="geometry" />
        </mxCell>
        <mxCell id="c112zVkCSZm8BFJnB4_g-27" value="" style="verticalLabelPosition=bottom;verticalAlign=top;html=1;shape=mxgraph.flowchart.on-page_reference;sketch=1;strokeWidth=2;strokeColor=#808080;hachureGap=1;fillColor=#808080" parent="1" vertex="1">
          <mxGeometry x="680" y="80" width="40" height="40" as="geometry" />
        </mxCell>
        <mxCell id="c112zVkCSZm8BFJnB4_g-28" value="" style="rounded=1;whiteSpace=wrap;html=1;strokeWidth=2;fillWeight=4;hachureGap=0;hachureAngle=45;sketch=1;rotation=-180;strokeColor=#C0C0C0;" parent="1" vertex="1">
          <mxGeometry x="462" y="382" width="60" height="30" as="geometry" />
        </mxCell>
        <mxCell id="c112zVkCSZm8BFJnB4_g-29" value="&lt;font style=&quot;font-size: 14px&quot; color=&quot;#c0c0c0&quot;&gt;&lt;b&gt;Back&lt;/b&gt;&lt;/font&gt;" style="text;html=1;strokeColor=none;fillColor=none;align=center;verticalAlign=middle;whiteSpace=wrap;rounded=0;" parent="1" vertex="1">
          <mxGeometry x="460" y="386" width="65" height="20" as="geometry" />
        </mxCell>
        <mxCell id="Bz7L_2ucmwz4REB3bsEb-1" value="&lt;font style=&quot;font-size: 24px&quot; color=&quot;#ffffff&quot;&gt;&lt;b&gt;1&lt;/b&gt;&lt;/font&gt;" style="text;html=1;strokeColor=none;fillColor=none;align=center;verticalAlign=middle;whiteSpace=wrap;rounded=0;" vertex="1" parent="1">
          <mxGeometry x="60" y="90" width="60" height="20" as="geometry" />
        </mxCell>
        <mxCell id="Bz7L_2ucmwz4REB3bsEb-2" value="&lt;font style=&quot;font-size: 24px&quot; color=&quot;#ffffff&quot;&gt;&lt;b&gt;2&lt;/b&gt;&lt;/font&gt;&lt;span style=&quot;color: rgba(0 , 0 , 0 , 0) ; font-family: monospace ; font-size: 0px&quot;&gt;%3CmxGraphModel%3E%3Croot%3E%3CmxCell%20id%3D%220%22%2F%3E%3CmxCell%20id%3D%221%22%20parent%3D%220%22%2F%3E%3CmxCell%20id%3D%222%22%20value%3D%22%26lt%3Bfont%20style%3D%26quot%3Bfont-size%3A%2024px%26quot%3B%20color%3D%26quot%3B%23ffffff%26quot%3B%26gt%3B%26lt%3Bb%26gt%3B1%26lt%3B%2Fb%26gt%3B%26lt%3B%2Ffont%26gt%3B%22%20style%3D%22text%3Bhtml%3D1%3BstrokeColor%3Dnone%3BfillColor%3Dnone%3Balign%3Dcenter%3BverticalAlign%3Dmiddle%3BwhiteSpace%3Dwrap%3Brounded%3D0%3B%22%20vertex%3D%221%22%20parent%3D%221%22%3E%3CmxGeometry%20x%3D%2260%22%20y%3D%2290%22%20width%3D%2260%22%20height%3D%2220%22%20as%3D%22geometry%22%2F%3E%3C%2FmxCell%3E%3C%2Froot%3E%3C%2FmxGraphModel%3E&lt;/span&gt;" style="text;html=1;strokeColor=none;fillColor=none;align=center;verticalAlign=middle;whiteSpace=wrap;rounded=0;" vertex="1" parent="1">
          <mxGeometry x="190" y="90" width="60" height="20" as="geometry" />
        </mxCell>
        <mxCell id="Bz7L_2ucmwz4REB3bsEb-3" value="&lt;font style=&quot;font-size: 24px&quot; color=&quot;#ffffff&quot;&gt;&lt;b&gt;3&lt;/b&gt;&lt;/font&gt;&lt;span style=&quot;color: rgba(0 , 0 , 0 , 0) ; font-family: monospace ; font-size: 0px&quot;&gt;%3CmxGraphModel%3E%3Croot%3E%3CmxCell%20id%3D%220%22%2F%3E%3CmxCell%20id%3D%221%22%20parent%3D%220%22%2F%3E%3CmxCell%20id%3D%222%22%20value%3D%22%26lt%3Bfont%20style%3D%26quot%3Bfont-size%3A%2024px%26quot%3B%20color%3D%26quot%3B%23ffffff%26quot%3B%26gt%3B%26lt%3Bb%26gt%3B1%26lt%3B%2Fb%26gt%3B%26lt%3B%2Ffont%26gt%3B%22%20style%3D%22text%3Bhtml%3D1%3BstrokeColor%3Dnone%3BfillColor%3Dnone%3Balign%3Dcenter%3BverticalAlign%3Dmiddle%3BwhiteSpace%3Dwrap%3Brounded%3D0%3B%22%20vertex%3D%221%22%20parent%3D%221%22%3E%3CmxGeometry%20x%3D%2260%22%20y%3D%2290%22%20width%3D%2260%22%20height%3D%2220%22%20as%3D%22geometry%22%2F%3E%3C%2FmxCell%3E%3C%2Froot%3E%3C%2FmxGraphModel%3E&lt;/span&gt;" style="text;html=1;strokeColor=none;fillColor=none;align=center;verticalAlign=middle;whiteSpace=wrap;rounded=0;" vertex="1" parent="1">
          <mxGeometry x="310" y="90" width="60" height="20" as="geometry" />
        </mxCell>
        <mxCell id="Bz7L_2ucmwz4REB3bsEb-4" value="&lt;font style=&quot;font-size: 24px&quot; color=&quot;#ffffff&quot;&gt;&lt;b&gt;4&lt;/b&gt;&lt;/font&gt;" style="text;html=1;strokeColor=none;fillColor=none;align=center;verticalAlign=middle;whiteSpace=wrap;rounded=0;" vertex="1" parent="1">
          <mxGeometry x="433" y="90" width="60" height="20" as="geometry" />
        </mxCell>
        <mxCell id="Bz7L_2ucmwz4REB3bsEb-5" value="&lt;font style=&quot;font-size: 24px&quot; color=&quot;#ffffff&quot;&gt;&lt;b&gt;5&lt;/b&gt;&lt;/font&gt;" style="text;html=1;strokeColor=none;fillColor=none;align=center;verticalAlign=middle;whiteSpace=wrap;rounded=0;" vertex="1" parent="1">
          <mxGeometry x="547" y="90" width="60" height="20" as="geometry" />
        </mxCell>
        <mxCell id="Bz7L_2ucmwz4REB3bsEb-6" value="&lt;font style=&quot;font-size: 24px&quot; color=&quot;#ffffff&quot;&gt;&lt;b&gt;6&lt;/b&gt;&lt;/font&gt;" style="text;html=1;strokeColor=none;fillColor=none;align=center;verticalAlign=middle;whiteSpace=wrap;rounded=0;" vertex="1" parent="1">
          <mxGeometry x="670" y="90" width="60" height="20" as="geometry" />
        </mxCell>
        <mxCell id="Bz7L_2ucmwz4REB3bsEb-7" value="&lt;font style=&quot;font-size: 14px&quot; color=&quot;#901dc2&quot;&gt;&lt;b&gt;Create Signature&lt;/b&gt;&lt;/font&gt;" style="text;html=1;strokeColor=none;fillColor=none;align=center;verticalAlign=middle;whiteSpace=wrap;rounded=0;" vertex="1" parent="1">
          <mxGeometry x="204" y="154" width="140" height="20" as="geometry" />
        </mxCell>
        <mxCell id="Bz7L_2ucmwz4REB3bsEb-8" value="&lt;font style=&quot;font-size: 12px&quot;&gt;&lt;b&gt;Add Signature&lt;/b&gt;&lt;/font&gt;" style="text;html=1;strokeColor=none;fillColor=none;align=center;verticalAlign=middle;whiteSpace=wrap;rounded=0;" vertex="1" parent="1">
          <mxGeometry x="333.5" y="240" width="140" height="20" as="geometry" />
        </mxCell>
        <mxCell id="Bz7L_2ucmwz4REB3bsEb-9" value="" style="endArrow=none;html=1;strokeWidth=1;sketch=1;exitX=0.948;exitY=0.548;exitDx=0;exitDy=0;exitPerimeter=0;" edge="1" parent="1" source="GuQGx1tjLfm4qj2VWrpc-30">
          <mxGeometry width="50" height="50" relative="1" as="geometry">
            <mxPoint x="270" y="249.5" as="sourcePoint" />
            <mxPoint x="356.5" y="249.5" as="targetPoint" />
          </mxGeometry>
        </mxCell>
        <mxCell id="Bz7L_2ucmwz4REB3bsEb-10" value="" style="endArrow=none;html=1;strokeWidth=1;sketch=1;entryX=0.044;entryY=0.548;entryDx=0;entryDy=0;entryPerimeter=0;" edge="1" parent="1" target="GuQGx1tjLfm4qj2VWrpc-30">
          <mxGeometry width="50" height="50" relative="1" as="geometry">
            <mxPoint x="449" y="249.5" as="sourcePoint" />
            <mxPoint x="535.5" y="249.5" as="targetPoint" />
          </mxGeometry>
        </mxCell>
        <mxCell id="Bz7L_2ucmwz4REB3bsEb-11" value="" style="rounded=1;whiteSpace=wrap;html=1;strokeWidth=2;fillWeight=4;hachureGap=0;hachureAngle=45;sketch=1;rotation=-180;strokeColor=#901dc2;fillColor=#F2F2F2" vertex="1" parent="1">
          <mxGeometry x="230" y="270" width="140" height="30" as="geometry" />
        </mxCell>
        <mxCell id="Bz7L_2ucmwz4REB3bsEb-12" value="&lt;font style=&quot;font-size: 12px&quot; color=&quot;#901dc2&quot;&gt;&lt;b&gt;Choose certificate key&lt;/b&gt;&lt;/font&gt;" style="text;html=1;strokeColor=none;fillColor=none;align=center;verticalAlign=middle;whiteSpace=wrap;rounded=0;" vertex="1" parent="1">
          <mxGeometry x="212" y="275" width="175" height="20" as="geometry" />
        </mxCell>
      </root>
    </mxGraphModel>
  </diagram>
</mxfile>
